<?xml version="1.0" encoding="UTF-8" standalone="no"?>
<!DOCTYPE svg PUBLIC "-//W3C//DTD SVG 1.1//EN" "http://www.w3.org/Graphics/SVG/1.1/DTD/svg11.dtd">
<svg width="100%" height="100%" viewBox="0 0 2363 2363" version="1.1" xmlns="http://www.w3.org/2000/svg" xmlns:xlink="http://www.w3.org/1999/xlink" xml:space="preserve" xmlns:serif="http://www.serif.com/" style="fill-rule:evenodd;clip-rule:evenodd;stroke-linejoin:round;stroke-miterlimit:1.41421;">
    <g transform="matrix(1,0,0,1,-24190,-56)">
        <g id="LOGO---OFFICIAL" serif:id="LOGO - OFFICIAL" transform="matrix(0.480218,0,0,0.554281,14872.5,24.4855)">
            <rect x="19402.6" y="56.857" width="4919.03" height="4261.74" style="fill:none;"/>
            <g id="TaskCollect-Logo" serif:id="TaskCollect Logo" transform="matrix(1.16477,0,0,1.00913,19029.3,151.11)">
                <g id="taco">
                    <g transform="matrix(3.48615,0,0,3.48615,-41868.5,-652.435)">
                        <path d="M12469.4,1200.57C12469.4,1200.57 12483.6,1183.58 12488,1173.57C12494.1,1159.64 12500.7,1134.35 12506.2,1116.99C12509.1,1107.91 12520.2,1061.58 12534.4,1018.86C12545.1,986.544 12558.8,957.461 12565.5,941.486C12586.6,890.948 12626.6,818.297 12666.7,760.049C12691,724.909 12716,695.567 12734.8,677.91C12759,655.331 12810.2,610.803 12862.1,582.888C12911.5,556.308 12960.5,546.468 12979.5,546.091C12994.3,545.796 13014.7,546.823 13037.1,553.456C13060.5,560.411 13084.7,574.076 13105.4,590.111C13143.1,619.368 13167.6,653.647 13180.2,672.694C13195.3,695.506 13213.9,733.574 13228.2,769.396C13243.3,807.016 13254,842.159 13257.6,854.548C13268,891.022 13277.4,939.8 13281.8,976.526C13283.2,987.65 13283.7,1000.18 13281.5,1009.61C13279.1,1020.22 13271.9,1026.33 13269,1027.8C13259.9,1032.27 13245.3,1034.49 13229.1,1036.2C13210.3,1038.2 13186.4,1043.44 13159.1,1049.34C13132.2,1055.15 12913.3,1102.42 12834.8,1117.88C12741.1,1136.34 12651,1157.01 12583,1171.53C12509.6,1187.21 12469.4,1200.57 12469.4,1200.57Z" style="fill:rgb(255,160,0);"/>
                    </g>
                    <g transform="matrix(3.48615,0,0,3.48615,-41868.5,-652.435)">
                        <path d="M12374.5,1006.26C12374.5,1006.26 12375.5,1018.16 12377.9,1034.22C12378.6,1039.28 12379.4,1044.89 12380.5,1050.54C12381.3,1055.13 12382.1,1059.74 12383,1064.36C12384.2,1070.58 12389.6,1092.64 12391.3,1098.08C12393,1103.27 12394.5,1107.79 12395,1109C12396.1,1112.16 12398.9,1118.37 12400.2,1121.2C12400.3,1121.42 12400.8,1122.45 12400.8,1122.45L12400.9,1122.68L12400.9,1122.7L12400.9,1122.69L12404.5,1121.55L12460.1,1104.04L12460.1,1146.04L12476.5,1146.05C12476.5,1146.05 12471,1162.01 12465.7,1170.86C12465.6,1170.95 12464.1,1173.52 12461.7,1176.88C12459.3,1180.13 12456.1,1184.11 12452.4,1188.15C12448,1193.03 12443,1198.22 12438.9,1201.76C12435.8,1204.43 12433.1,1206.5 12431.6,1207.47C12428.3,1209.67 12425.9,1210.91 12420,1210.76C12417.2,1210.69 12413.8,1210.1 12411,1208.81C12408.1,1207.44 12402.9,1203.63 12402.7,1203.46C12399,1200.64 12394.8,1195.75 12392,1191.09C12389.9,1187.75 12387.3,1182.78 12385.3,1177.87C12383.5,1173.63 12382.2,1169.44 12381.1,1166.35C12379.3,1161.43 12378.3,1156.01 12377.3,1151.08C12376.3,1146.36 12375.3,1141.12 12374.7,1136.81C12374.2,1132.98 12374.1,1129.09 12373.8,1125.26C12372.3,1106.24 12372.1,1088.37 12372.1,1085.12C12372.1,1082.44 12371.8,1071.65 12372,1060.06C12372.2,1054.64 12372.3,1049.06 12372.5,1044.04C12372.6,1041.15 12372.9,1035.03 12372.9,1034.17C12373.2,1027.02 12374.5,1006.26 12374.5,1006.26Z" style="fill:rgb(255,160,0);"/>
                    </g>
                </g>
                <g id="pages" transform="matrix(3.48615,0,0,3.48615,-20732.9,-12801.2)">
                    <g transform="matrix(1,0,0,1,-6062.73,3484.85)">
                        <path d="M12510.6,556.768C12510.6,556.768 12507,559.154 12503.8,567.971C12500.5,577.067 12497.4,589.649 12495.6,600C12491.8,621.583 12489.9,684.981 12489.9,684.981L12490.4,1107.32C12490.4,1107.32 12491.5,1089.33 12506,1039.79C12518.7,996.194 12544.1,936.502 12562.1,897.501C12576.8,865.62 12598.1,832.665 12613.9,805.784C12627.8,782.253 12648.1,747.971 12657.2,736.21C12698.3,682.953 12744.7,640.168 12768.7,620.395C12823.4,575.248 12891.5,543.936 12914.7,537.464C12941.3,530.053 12972.4,523.048 12998.4,524.696C13022,526.185 13041.8,531.928 13052.6,536.379C13080.9,547.952 13117.7,571.155 13130.1,581.788C13158.8,606.364 13191.5,650.666 13191.5,650.666C13191.5,650.666 13190,581.445 13191.7,553.67C13193.3,528.603 13205.7,479.372 13205.7,479.372L12510.6,556.768Z" style="fill:rgb(0,152,249);"/>
                    </g>
                    <g transform="matrix(1,0,0,1,-6062.73,3484.85)">
                        <path d="M12344.7,511.092C12344.7,511.092 12371.5,541.452 12384.8,579.22C12387.1,585.851 12394,602.676 12399.1,634.025C12404.4,666.604 12401,712.311 12399.3,757.899C12398.7,773.204 12397.9,788.352 12397.8,803.943C12397.3,867.113 12396.5,928.751 12397.4,946.083C12399.1,978.707 12400.9,1009.29 12404.7,1033.98C12410.7,1072.43 12418.8,1097.12 12418.8,1097.12L12460.2,1082.33C12460.2,1082.35 12460.6,977.748 12459.8,861.452C12459.4,797.858 12460.2,644.071 12461.7,629.841C12464.3,605.521 12468,584.029 12472.8,568.063C12479.4,546.036 12488.5,530.071 12488.5,530.071L13069.7,465.472C13069.7,465.472 13064.8,454.52 13056.2,437.595C13048.9,423.329 13039.1,408.503 13032.8,400.391C13027.3,393.35 13020.9,386.415 13011.9,379.335C12999.5,369.58 12986.8,364.022 12986.8,364.022L12344.7,511.092Z" style="fill:rgb(0,152,249);"/>
                    </g>
                    <g transform="matrix(1,0,0,1,-6062.73,3484.85)">
                        <path d="M12132.2,421.709C12132.2,421.709 12149.6,430.004 12169.2,445.651C12192.5,464.193 12218.7,492.171 12235.5,516.317C12251,538.601 12264.8,565.165 12274.9,590.608C12285.5,616.935 12294.4,640.603 12298.6,666.891C12303.7,698.71 12304.1,731.82 12305.6,781.523C12307.3,837.56 12308.9,892.385 12310.6,904.858C12316.1,947.407 12328,975.987 12328,975.987L12371.7,969.989C12371.7,969.989 12369.5,935.968 12369.5,889.379C12369.5,870.142 12370.3,823.455 12370.2,801.357C12370.1,726.011 12380.1,676.513 12373.6,637.418C12369.5,613.229 12356.3,574.242 12343.4,552.644C12323.5,519.369 12283.9,492.813 12283.9,492.813L12850,364.456C12850,364.456 12848.1,363.392 12833.5,355.975C12821,349.548 12809.2,344.324 12798.6,339.853C12789.2,335.89 12779.7,332.508 12769.9,329.151C12756.9,324.721 12745.9,321.357 12745.9,321.357L12132.2,421.709Z" style="fill:rgb(0,152,249);"/>
                    </g>
                </g>
            </g>
        </g>
    </g>
</svg>
