<?xml version="1.0" encoding="UTF-8" standalone="no"?>
<!DOCTYPE svg PUBLIC "-//W3C//DTD SVG 1.1//EN" "http://www.w3.org/Graphics/SVG/1.1/DTD/svg11.dtd">
<svg width="100%" height="100%" viewBox="0 0 10040 1772" version="1.1" xmlns="http://www.w3.org/2000/svg" xmlns:xlink="http://www.w3.org/1999/xlink" xml:space="preserve" xmlns:serif="http://www.serif.com/" style="fill-rule:evenodd;clip-rule:evenodd;stroke-linejoin:round;stroke-miterlimit:1.41421;">
    <g transform="matrix(1,0,0,1,-24180.6,-3039.37)">
        <g id="WORDMARK---OFFICIAL" serif:id="WORDMARK - OFFICIAL" transform="matrix(1.32682,0,0,0.741814,-1571,1082.45)">
            <rect x="19408.5" y="2638.01" width="7566.48" height="2388.27" style="fill:none;"/>
            <g id="TaskCollect-Wordmark" serif:id="TaskCollect Wordmark" transform="matrix(1,0,0,1.33333,24.5154,-1238.74)">
                <g id="TaskCollect-Logo" serif:id="TaskCollect Logo" transform="matrix(0.421566,0,0,0.565516,19268.9,2661.85)">
                    <g id="taco">
                        <g transform="matrix(3.48615,0,0,3.48615,-41868.5,-652.435)">
                            <path d="M12469.4,1200.57C12469.4,1200.57 12483.6,1183.58 12488,1173.57C12494.1,1159.64 12500.7,1134.35 12506.2,1116.99C12509.1,1107.91 12520.2,1061.58 12534.4,1018.86C12545.1,986.544 12558.8,957.461 12565.5,941.486C12586.6,890.948 12626.6,818.297 12666.7,760.049C12691,724.909 12716,695.567 12734.8,677.91C12759,655.331 12810.2,610.803 12862.1,582.888C12911.5,556.308 12960.5,546.468 12979.5,546.091C12994.3,545.796 13014.7,546.823 13037.1,553.456C13060.5,560.411 13084.7,574.076 13105.4,590.111C13143.1,619.368 13167.6,653.647 13180.2,672.694C13195.3,695.506 13213.9,733.574 13228.2,769.396C13243.3,807.016 13254,842.159 13257.6,854.548C13268,891.022 13277.4,939.8 13281.8,976.526C13283.2,987.65 13283.7,1000.18 13281.5,1009.61C13279.1,1020.22 13271.9,1026.33 13269,1027.8C13259.9,1032.27 13245.3,1034.49 13229.1,1036.2C13210.3,1038.2 13186.4,1043.44 13159.1,1049.34C13132.2,1055.15 12913.3,1102.42 12834.8,1117.88C12741.1,1136.34 12651,1157.01 12583,1171.53C12509.6,1187.21 12469.4,1200.57 12469.4,1200.57Z" style="fill:rgb(255,160,0);"/>
                        </g>
                        <g transform="matrix(3.48615,0,0,3.48615,-41868.5,-652.435)">
                            <path d="M12374.5,1006.26C12374.5,1006.26 12375.5,1018.16 12377.9,1034.22C12378.6,1039.28 12379.4,1044.89 12380.5,1050.54C12381.3,1055.13 12382.1,1059.74 12383,1064.36C12384.2,1070.58 12389.6,1092.64 12391.3,1098.08C12393,1103.27 12394.5,1107.79 12395,1109C12396.1,1112.16 12398.9,1118.37 12400.2,1121.2C12400.3,1121.42 12400.8,1122.45 12400.8,1122.45L12400.9,1122.68L12400.9,1122.7L12400.9,1122.69L12404.5,1121.55L12460.1,1104.04L12460.1,1146.04L12476.5,1146.05C12476.5,1146.05 12471,1162.01 12465.7,1170.86C12465.6,1170.95 12464.1,1173.52 12461.7,1176.88C12459.3,1180.13 12456.1,1184.11 12452.4,1188.15C12448,1193.03 12443,1198.22 12438.9,1201.76C12435.8,1204.43 12433.1,1206.5 12431.6,1207.47C12428.3,1209.67 12425.9,1210.91 12420,1210.76C12417.2,1210.69 12413.8,1210.1 12411,1208.81C12408.1,1207.44 12402.9,1203.63 12402.7,1203.46C12399,1200.64 12394.8,1195.75 12392,1191.09C12389.9,1187.75 12387.3,1182.78 12385.3,1177.87C12383.5,1173.63 12382.2,1169.44 12381.1,1166.35C12379.3,1161.43 12378.3,1156.01 12377.3,1151.08C12376.3,1146.36 12375.3,1141.12 12374.7,1136.81C12374.2,1132.98 12374.1,1129.09 12373.8,1125.26C12372.3,1106.24 12372.1,1088.37 12372.1,1085.12C12372.1,1082.44 12371.8,1071.65 12372,1060.06C12372.2,1054.64 12372.3,1049.06 12372.5,1044.04C12372.6,1041.15 12372.9,1035.03 12372.9,1034.17C12373.2,1027.02 12374.5,1006.26 12374.5,1006.26Z" style="fill:rgb(255,160,0);"/>
                        </g>
                    </g>
                    <g id="pages" transform="matrix(3.48615,0,0,3.48615,-20732.9,-12801.2)">
                        <g transform="matrix(1,0,0,1,-6062.73,3484.85)">
                            <path d="M12510.6,556.768C12510.6,556.768 12507,559.154 12503.8,567.971C12500.5,577.067 12497.4,589.649 12495.6,600C12491.8,621.583 12489.9,684.981 12489.9,684.981L12490.4,1107.32C12490.4,1107.32 12491.5,1089.33 12506,1039.79C12518.7,996.194 12544.1,936.502 12562.1,897.501C12576.8,865.62 12598.1,832.665 12613.9,805.784C12627.8,782.253 12648.1,747.971 12657.2,736.21C12698.3,682.953 12744.7,640.168 12768.7,620.395C12823.4,575.248 12891.5,543.936 12914.7,537.464C12941.3,530.053 12972.4,523.048 12998.4,524.696C13022,526.185 13041.8,531.928 13052.6,536.379C13080.9,547.952 13117.7,571.155 13130.1,581.788C13158.8,606.364 13191.5,650.666 13191.5,650.666C13191.5,650.666 13190,581.445 13191.7,553.67C13193.3,528.603 13205.7,479.372 13205.7,479.372L12510.6,556.768Z" style="fill:rgb(0,152,249);"/>
                        </g>
                        <g transform="matrix(1,0,0,1,-6062.73,3484.85)">
                            <path d="M12344.7,511.092C12344.7,511.092 12371.5,541.452 12384.8,579.22C12387.1,585.851 12394,602.676 12399.1,634.025C12404.4,666.604 12401,712.311 12399.3,757.899C12398.7,773.204 12397.9,788.352 12397.8,803.943C12397.3,867.113 12396.5,928.751 12397.4,946.083C12399.1,978.707 12400.9,1009.29 12404.7,1033.98C12410.7,1072.43 12418.8,1097.12 12418.8,1097.12L12460.2,1082.33C12460.2,1082.35 12460.6,977.748 12459.8,861.452C12459.4,797.858 12460.2,644.071 12461.7,629.841C12464.3,605.521 12468,584.029 12472.8,568.063C12479.4,546.036 12488.5,530.071 12488.5,530.071L13069.7,465.472C13069.7,465.472 13064.8,454.52 13056.2,437.595C13048.9,423.329 13039.1,408.503 13032.8,400.391C13027.3,393.35 13020.9,386.415 13011.9,379.335C12999.5,369.58 12986.8,364.022 12986.8,364.022L12344.7,511.092Z" style="fill:rgb(0,152,249);"/>
                        </g>
                        <g transform="matrix(1,0,0,1,-6062.73,3484.85)">
                            <path d="M12132.2,421.709C12132.2,421.709 12149.6,430.004 12169.2,445.651C12192.5,464.193 12218.7,492.171 12235.5,516.317C12251,538.601 12264.8,565.165 12274.9,590.608C12285.5,616.935 12294.4,640.603 12298.6,666.891C12303.7,698.71 12304.1,731.82 12305.6,781.523C12307.3,837.56 12308.9,892.385 12310.6,904.858C12316.1,947.407 12328,975.987 12328,975.987L12371.7,969.989C12371.7,969.989 12369.5,935.968 12369.5,889.379C12369.5,870.142 12370.3,823.455 12370.2,801.357C12370.1,726.011 12380.1,676.513 12373.6,637.418C12369.5,613.229 12356.3,574.242 12343.4,552.644C12323.5,519.369 12283.9,492.813 12283.9,492.813L12850,364.456C12850,364.456 12848.1,363.392 12833.5,355.975C12821,349.548 12809.2,344.324 12798.6,339.853C12789.2,335.89 12779.7,332.508 12769.9,329.151C12756.9,324.721 12745.9,321.357 12745.9,321.357L12132.2,421.709Z" style="fill:rgb(0,152,249);"/>
                        </g>
                    </g>
                </g>
                <g transform="matrix(1.32393,0,0,1.58668,20408.7,-3731.66)">
                    <g transform="matrix(1.82272,0,0,2.04021,-584.164,-4224.78)">
                        <path d="M815.876,4555.86L815.876,4317.53L717.543,4317.53L717.543,4264.2L974.209,4264.2L974.209,4317.53L876.293,4317.53L876.293,4555.86L815.876,4555.86Z" style="fill:rgb(0,152,249);fill-rule:nonzero;"/>
                    </g>
                    <g transform="matrix(1.82272,0,0,2.04021,-584.164,-4224.78)">
                        <path d="M1027.96,4559.61C1012.4,4559.61 998.654,4556.77 986.709,4551.07C974.765,4545.38 965.459,4537.53 958.793,4527.53C952.126,4517.53 948.793,4506 948.793,4492.95C948.793,4472.11 956.64,4455.93 972.334,4444.4C988.029,4432.88 1009.63,4427.11 1037.13,4427.11C1056.02,4427.11 1073.79,4430.03 1090.46,4435.86L1090.46,4420.03C1090.46,4407.53 1086.57,4398.09 1078.79,4391.7C1071.02,4385.31 1059.63,4382.11 1044.63,4382.11C1035.46,4382.11 1025.6,4383.57 1015.04,4386.49C1004.49,4389.4 992.265,4393.92 978.376,4400.03L957.543,4357.95C974.765,4350.17 991.223,4344.34 1006.92,4340.45C1022.61,4336.56 1038.38,4334.61 1054.21,4334.61C1083.38,4334.61 1106.08,4341.63 1122.33,4355.65C1138.58,4369.68 1146.71,4389.47 1146.71,4415.03L1146.71,4555.86L1090.46,4555.86L1090.46,4540.45C1081.57,4547.11 1071.99,4551.97 1061.71,4555.03C1051.43,4558.09 1040.18,4559.61 1027.96,4559.61ZM1002.96,4491.7C1002.96,4500.03 1006.57,4506.63 1013.79,4511.49C1021.01,4516.35 1030.6,4518.78 1042.54,4518.78C1051.99,4518.78 1060.74,4517.6 1068.79,4515.24C1076.85,4512.88 1084.07,4509.34 1090.46,4504.61L1090.46,4472.95C1083.52,4470.17 1076.29,4468.09 1068.79,4466.7C1061.29,4465.31 1053.24,4464.61 1044.63,4464.61C1031.57,4464.61 1021.36,4467.04 1014,4471.9C1006.64,4476.77 1002.96,4483.36 1002.96,4491.7Z" style="fill:rgb(0,152,249);fill-rule:nonzero;"/>
                    </g>
                    <g transform="matrix(1.82272,0,0,2.04021,-584.164,-4224.78)">
                        <path d="M1271.29,4560.03C1251.29,4560.03 1232.82,4557.46 1215.88,4552.32C1198.93,4547.18 1184.21,4539.75 1171.71,4530.03L1200.04,4492.11C1212.54,4500.45 1224.56,4506.7 1236.08,4510.86C1247.61,4515.03 1259.07,4517.11 1270.46,4517.11C1283.24,4517.11 1293.44,4514.96 1301.08,4510.65C1308.72,4506.35 1312.54,4500.72 1312.54,4493.78C1312.54,4488.22 1310.39,4483.78 1306.08,4480.45C1301.78,4477.11 1294.9,4474.75 1285.46,4473.36L1243.79,4467.11C1222.13,4463.78 1205.74,4456.77 1194.63,4446.07C1183.52,4435.38 1177.96,4421.28 1177.96,4403.78C1177.96,4389.61 1181.64,4377.46 1189,4367.32C1196.36,4357.18 1206.78,4349.27 1220.25,4343.57C1233.72,4337.88 1249.77,4335.03 1268.38,4335.03C1284.21,4335.03 1299.69,4337.25 1314.83,4341.7C1329.97,4346.14 1344.21,4352.95 1357.54,4362.11L1330.04,4399.2C1318.1,4391.7 1306.71,4386.28 1295.88,4382.95C1285.04,4379.61 1274.07,4377.95 1262.96,4377.95C1252.68,4377.95 1244.42,4379.89 1238.17,4383.78C1231.92,4387.67 1228.79,4392.81 1228.79,4399.2C1228.79,4405.03 1231.02,4409.61 1235.46,4412.95C1239.9,4416.28 1247.54,4418.64 1258.38,4420.03L1300.04,4426.28C1321.43,4429.34 1337.82,4436.21 1349.21,4446.9C1360.6,4457.6 1366.29,4471.42 1366.29,4488.36C1366.29,4502.25 1362.13,4514.54 1353.79,4525.24C1345.46,4535.93 1334.21,4544.4 1320.04,4550.65C1305.88,4556.9 1289.63,4560.03 1271.29,4560.03Z" style="fill:rgb(0,152,249);fill-rule:nonzero;"/>
                    </g>
                    <g transform="matrix(1.82272,0,0,2.04021,-584.164,-4224.78)">
                        <path d="M1394.63,4555.86L1394.63,4264.2L1451.71,4254.61L1451.71,4430.03L1545.46,4338.78L1610.04,4338.78L1507.54,4438.36L1616.29,4555.86L1543.38,4555.86L1451.71,4456.7L1451.71,4555.86L1394.63,4555.86Z" style="fill:rgb(0,152,249);fill-rule:nonzero;"/>
                    </g>
                    <g transform="matrix(1.82272,0,0,2.04021,-584.164,-4224.78)">
                        <path d="M1778.79,4560.03C1757.13,4560.03 1736.85,4556.21 1717.96,4548.57C1699.07,4540.93 1682.61,4530.31 1668.58,4516.7C1654.56,4503.09 1643.58,4487.18 1635.67,4468.99C1627.75,4450.79 1623.79,4431.14 1623.79,4410.03C1623.79,4388.64 1627.75,4368.85 1635.67,4350.65C1643.58,4332.46 1654.63,4316.56 1668.79,4302.95C1682.96,4289.34 1699.42,4278.71 1718.17,4271.07C1736.92,4263.43 1757.13,4259.61 1778.79,4259.61C1794.9,4259.61 1810.46,4261.84 1825.46,4266.28C1840.46,4270.72 1854.42,4276.97 1867.33,4285.03C1880.25,4293.09 1891.29,4302.81 1900.46,4314.2L1859.63,4354.61C1849.07,4341.56 1836.92,4331.7 1823.17,4325.03C1809.42,4318.36 1794.63,4315.03 1778.79,4315.03C1765.74,4315.03 1753.52,4317.46 1742.13,4322.32C1730.74,4327.18 1720.88,4333.85 1712.54,4342.32C1704.21,4350.79 1697.68,4360.79 1692.96,4372.32C1688.24,4383.85 1685.88,4396.42 1685.88,4410.03C1685.88,4423.36 1688.24,4435.79 1692.96,4447.32C1697.68,4458.85 1704.35,4468.85 1712.96,4477.32C1721.57,4485.79 1731.64,4492.39 1743.17,4497.11C1754.69,4501.84 1767.27,4504.2 1780.88,4504.2C1796.15,4504.2 1810.46,4501 1823.79,4494.61C1837.13,4488.22 1848.93,4479.06 1859.21,4467.11L1898.79,4506.28C1889.63,4517.39 1878.65,4526.97 1865.88,4535.03C1853.1,4543.09 1839.28,4549.27 1824.42,4553.57C1809.56,4557.88 1794.35,4560.03 1778.79,4560.03Z" style="fill:rgb(0,152,249);fill-rule:nonzero;"/>
                    </g>
                    <g transform="matrix(1.82272,0,0,2.04021,-584.164,-4224.78)">
                        <path d="M2030.04,4560.03C2008.38,4560.03 1988.79,4555.03 1971.29,4545.03C1953.79,4535.03 1939.9,4521.56 1929.63,4504.61C1919.35,4487.67 1914.21,4468.64 1914.21,4447.53C1914.21,4426.42 1919.28,4407.32 1929.42,4390.24C1939.56,4373.15 1953.44,4359.61 1971.08,4349.61C1988.72,4339.61 2008.38,4334.61 2030.04,4334.61C2051.71,4334.61 2071.36,4339.61 2089,4349.61C2106.64,4359.61 2120.53,4373.15 2130.67,4390.24C2140.81,4407.32 2145.88,4426.42 2145.88,4447.53C2145.88,4468.64 2140.81,4487.67 2130.67,4504.61C2120.53,4521.56 2106.71,4535.03 2089.21,4545.03C2071.71,4555.03 2051.99,4560.03 2030.04,4560.03ZM2030.04,4510.45C2041.43,4510.45 2051.64,4507.67 2060.67,4502.11C2069.7,4496.56 2076.92,4488.99 2082.33,4479.4C2087.75,4469.82 2090.46,4459.2 2090.46,4447.53C2090.46,4435.59 2087.75,4424.89 2082.33,4415.45C2076.92,4406 2069.7,4398.43 2060.67,4392.74C2051.64,4387.04 2041.43,4384.2 2030.04,4384.2C2018.93,4384.2 2008.79,4387.04 1999.63,4392.74C1990.46,4398.43 1983.24,4406 1977.96,4415.45C1972.68,4424.89 1970.04,4435.59 1970.04,4447.53C1970.04,4459.2 1972.68,4469.82 1977.96,4479.4C1983.24,4488.99 1990.46,4496.56 1999.63,4502.11C2008.79,4507.67 2018.93,4510.45 2030.04,4510.45Z" style="fill:rgb(0,152,249);fill-rule:nonzero;"/>
                    </g>
                    <g transform="matrix(1.82272,0,0,2.04021,-584.164,-4224.78)">
                        <path d="M2180.88,4555.86L2180.88,4264.2L2237.96,4254.61L2237.96,4555.86L2180.88,4555.86Z" style="fill:rgb(0,152,249);fill-rule:nonzero;"/>
                    </g>
                    <g transform="matrix(1.82272,0,0,2.04021,-584.164,-4224.78)">
                        <path d="M2282.54,4555.86L2282.54,4264.2L2339.63,4254.61L2339.63,4555.86L2282.54,4555.86Z" style="fill:rgb(0,152,249);fill-rule:nonzero;"/>
                    </g>
                    <g transform="matrix(1.82272,0,0,2.04021,-584.164,-4224.78)">
                        <path d="M2490.46,4560.03C2468.79,4560.03 2449.14,4555.03 2431.5,4545.03C2413.86,4535.03 2399.9,4521.56 2389.63,4504.61C2379.35,4487.67 2374.21,4468.64 2374.21,4447.53C2374.21,4426.42 2379.14,4407.39 2389,4390.45C2398.86,4373.5 2412.26,4360.03 2429.21,4350.03C2446.15,4340.03 2465.04,4335.03 2485.88,4335.03C2506.71,4335.03 2525.18,4340.17 2541.29,4350.45C2557.4,4360.72 2570.11,4374.61 2579.42,4392.11C2588.72,4409.61 2593.38,4429.47 2593.38,4451.7L2593.38,4466.7L2432.54,4466.7C2435.04,4475.31 2439.14,4483.09 2444.83,4490.03C2450.53,4496.97 2457.61,4502.39 2466.08,4506.28C2474.56,4510.17 2483.65,4512.11 2493.38,4512.11C2503.1,4512.11 2512.06,4510.59 2520.25,4507.53C2528.45,4504.47 2535.46,4500.17 2541.29,4494.61L2578.79,4528.78C2565.46,4539.61 2551.78,4547.53 2537.75,4552.53C2523.72,4557.53 2507.96,4560.03 2490.46,4560.03ZM2431.71,4425.86L2537.13,4425.86C2535.18,4417.25 2531.64,4409.68 2526.5,4403.15C2521.36,4396.63 2515.25,4391.49 2508.17,4387.74C2501.08,4383.99 2493.24,4382.11 2484.63,4382.11C2475.74,4382.11 2467.75,4383.92 2460.67,4387.53C2453.58,4391.14 2447.54,4396.21 2442.54,4402.74C2437.54,4409.27 2433.93,4416.97 2431.71,4425.86Z" style="fill:rgb(0,152,249);fill-rule:nonzero;"/>
                    </g>
                    <g transform="matrix(1.82272,0,0,2.04021,-584.164,-4224.78)">
                        <path d="M2733.79,4560.03C2712.4,4560.03 2693.1,4555.1 2675.88,4545.24C2658.65,4535.38 2645.04,4521.9 2635.04,4504.82C2625.04,4487.74 2620.04,4468.64 2620.04,4447.53C2620.04,4426.14 2625.04,4406.97 2635.04,4390.03C2645.04,4373.09 2658.65,4359.61 2675.88,4349.61C2693.1,4339.61 2712.4,4334.61 2733.79,4334.61C2751.01,4334.61 2767.47,4337.95 2783.17,4344.61C2798.86,4351.28 2812.4,4360.86 2823.79,4373.36L2788.79,4410.45C2780.74,4401.56 2772.33,4394.96 2763.58,4390.65C2754.83,4386.35 2745.32,4384.2 2735.04,4384.2C2723.93,4384.2 2714,4386.97 2705.25,4392.53C2696.5,4398.09 2689.56,4405.59 2684.42,4415.03C2679.28,4424.47 2676.71,4435.31 2676.71,4447.53C2676.71,4459.2 2679.28,4469.82 2684.42,4479.4C2689.56,4488.99 2696.71,4496.49 2705.88,4501.9C2715.04,4507.32 2725.18,4510.03 2736.29,4510.03C2746.01,4510.03 2755.11,4508.02 2763.58,4503.99C2772.06,4499.96 2780.18,4493.92 2787.96,4485.86L2822.13,4521.7C2811.01,4533.64 2797.68,4543.02 2782.13,4549.82C2766.57,4556.63 2750.46,4560.03 2733.79,4560.03Z" style="fill:rgb(0,152,249);fill-rule:nonzero;"/>
                    </g>
                    <g transform="matrix(1.82272,0,0,2.04021,-584.164,-4224.78)">
                        <path d="M2958.79,4559.2C2934.63,4559.2 2916.36,4553.71 2904,4542.74C2891.64,4531.77 2885.46,4515.72 2885.46,4494.61L2885.46,4386.28L2840.88,4386.28L2840.88,4338.78L2885.46,4338.78L2885.46,4283.36L2942.54,4270.45L2942.54,4338.78L3004.63,4338.78L3004.63,4386.28L2942.54,4386.28L2942.54,4482.95C2942.54,4492.95 2944.76,4500.1 2949.21,4504.4C2953.65,4508.71 2961.43,4510.86 2972.54,4510.86C2978.1,4510.86 2983.17,4510.52 2987.75,4509.82C2992.33,4509.13 2997.4,4507.81 3002.96,4505.86L3002.96,4552.95C2997.13,4554.89 2989.9,4556.42 2981.29,4557.53C2972.68,4558.64 2965.18,4559.2 2958.79,4559.2Z" style="fill:rgb(0,152,249);fill-rule:nonzero;"/>
                    </g>
                </g>
            </g>
        </g>
    </g>
</svg>
